<svg width="198" height="54" viewBox="0 0 198 54" fill="none" xmlns="http://www.w3.org/2000/svg">
<g filter="url(#filter0_d_468_4760)">
<path d="M9.49125 20.6094C8.835 20.6094 8.21 20.4844 7.61625 20.2344C7.03812 19.9688 6.53031 19.625 6.09281 19.2031C5.65531 18.7656 5.31156 18.2578 5.06156 17.6797C4.81156 17.0859 4.68656 16.4609 4.68656 15.8047V6.19531C4.68656 5.53906 4.81156 4.92188 5.06156 4.34375C5.31156 3.75 5.65531 3.24219 6.09281 2.82031C6.53031 2.38281 7.03812 2.03906 7.61625 1.78906C8.21 1.52344 8.835 1.39062 9.49125 1.39062H25.8037C26.46 1.39062 27.0772 1.52344 27.6553 1.78906C28.2491 2.03906 28.7647 2.38281 29.2022 2.82031C29.6397 3.24219 29.9834 3.75 30.2334 4.34375C30.4834 4.92188 30.6084 5.53906 30.6084 6.19531V10.5312H25.8037V6.19531H9.49125V15.8047H25.8037C26.46 15.8047 27.0772 15.9297 27.6553 16.1797C28.2491 16.4297 28.7647 16.7734 29.2022 17.2109C29.6397 17.6484 29.9834 18.1641 30.2334 18.7578C30.4834 19.3359 30.6084 19.9531 30.6084 20.6094V30.1953C30.6084 30.8516 30.4834 31.4766 30.2334 32.0703C29.9834 32.6484 29.6397 33.1562 29.2022 33.5938C28.7647 34.0312 28.2491 34.375 27.6553 34.625C27.0772 34.875 26.46 35 25.8037 35H9.0225C8.36625 35 7.74125 34.875 7.1475 34.625C6.56937 34.375 6.06156 34.0312 5.62406 33.5938C5.18656 33.1562 4.84281 32.6484 4.59281 32.0703C4.34281 31.4766 4.21781 30.8516 4.21781 30.1953V25.8828H9.0225V30.1953H25.8037V20.6094H9.49125ZM43.3431 10.0391V35H38.7259V10.0391H43.3431ZM38.4916 0.429688H43.5775V5.23438H38.4916V0.429688ZM50.9684 14.6562C50.9684 14.0156 51.0856 13.4141 51.32 12.8516C51.57 12.2891 51.8981 11.8047 52.3044 11.3984C52.7262 10.9766 53.2184 10.6484 53.7809 10.4141C54.3434 10.1641 54.9372 10.0391 55.5622 10.0391H63.8356C64.445 10.0391 65.0231 10.1562 65.57 10.3906C66.1169 10.6094 66.5934 10.9219 66.9997 11.3281C67.4216 11.7188 67.7575 12.1875 68.0075 12.7344C68.2731 13.2656 68.4137 13.8359 68.4294 14.4453V10.0391H73.0466V40.4609C73.0466 41.1016 72.9216 41.7031 72.6716 42.2656C72.4372 42.8281 72.1091 43.3125 71.6872 43.7188C71.2809 44.1406 70.7966 44.4688 70.2341 44.7031C69.6716 44.9531 69.07 45.0781 68.4294 45.0781H53.8512V40.4609H68.4294V34.0391H55.5622C54.9372 34.0391 54.3434 33.9219 53.7809 33.6875C53.2184 33.4375 52.7262 33.1094 52.3044 32.7031C51.8981 32.2812 51.57 31.7891 51.32 31.2266C51.0856 30.6641 50.9684 30.0625 50.9684 29.4219V14.6562ZM68.4294 29.4219V14.6562H55.5622V29.4219H68.4294ZM102.492 35H97.875V14.6562H85.0078V35H80.4141V10.0391H85.0078V14.4453C85.0391 13.8359 85.1797 13.2656 85.4297 12.7344C85.6797 12.1875 86.0078 11.7188 86.4141 11.3281C86.8359 10.9219 87.3203 10.6094 87.8672 10.3906C88.4141 10.1562 89 10.0391 89.625 10.0391H97.875C98.5156 10.0391 99.1172 10.1641 99.6797 10.4141C100.242 10.6484 100.727 10.9766 101.133 11.3984C101.555 11.8047 101.883 12.2891 102.117 12.8516C102.367 13.4141 102.492 14.0156 102.492 14.6562V35ZM115.133 20.6094C114.477 20.6094 113.852 20.4844 113.258 20.2344C112.68 19.9688 112.172 19.625 111.735 19.2031C111.297 18.7656 110.953 18.2578 110.703 17.6797C110.453 17.0859 110.328 16.4609 110.328 15.8047V6.19531C110.328 5.53906 110.453 4.92188 110.703 4.34375C110.953 3.75 111.297 3.24219 111.735 2.82031C112.172 2.38281 112.68 2.03906 113.258 1.78906C113.852 1.52344 114.477 1.39062 115.133 1.39062H131.446C132.102 1.39062 132.719 1.52344 133.297 1.78906C133.891 2.03906 134.407 2.38281 134.844 2.82031C135.282 3.24219 135.625 3.75 135.875 4.34375C136.125 4.92188 136.25 5.53906 136.25 6.19531V10.5312H131.446V6.19531H115.133V15.8047H131.446C132.102 15.8047 132.719 15.9297 133.297 16.1797C133.891 16.4297 134.407 16.7734 134.844 17.2109C135.282 17.6484 135.625 18.1641 135.875 18.7578C136.125 19.3359 136.25 19.9531 136.25 20.6094V30.1953C136.25 30.8516 136.125 31.4766 135.875 32.0703C135.625 32.6484 135.282 33.1562 134.844 33.5938C134.407 34.0312 133.891 34.375 133.297 34.625C132.719 34.875 132.102 35 131.446 35H114.664C114.008 35 113.383 34.875 112.789 34.625C112.211 34.375 111.703 34.0312 111.266 33.5938C110.828 33.1562 110.485 32.6484 110.235 32.0703C109.985 31.4766 109.86 30.8516 109.86 30.1953V25.8828H114.664V30.1953H131.446V20.6094H115.133ZM165.251 24.875H148.727V30.3828H165.251V35H148.727C148.102 35 147.508 34.8828 146.946 34.6484C146.383 34.3984 145.891 34.0703 145.469 33.6641C145.063 33.2422 144.735 32.75 144.485 32.1875C144.251 31.625 144.133 31.0234 144.133 30.3828V14.6562C144.133 14.0156 144.251 13.4141 144.485 12.8516C144.735 12.2891 145.063 11.8047 145.469 11.3984C145.891 10.9766 146.383 10.6484 146.946 10.4141C147.508 10.1641 148.102 10.0391 148.727 10.0391H160.633C161.274 10.0391 161.876 10.1641 162.438 10.4141C163.001 10.6484 163.485 10.9766 163.891 11.3984C164.313 11.8047 164.641 12.2891 164.876 12.8516C165.126 13.4141 165.251 14.0156 165.251 14.6562V24.875ZM148.727 14.6562V20.2578H160.633V14.6562H148.727ZM193.759 24.875H177.235V30.3828H193.759V35H177.235C176.61 35 176.017 34.8828 175.454 34.6484C174.892 34.3984 174.399 34.0703 173.978 33.6641C173.571 33.2422 173.243 32.75 172.993 32.1875C172.759 31.625 172.642 31.0234 172.642 30.3828V14.6562C172.642 14.0156 172.759 13.4141 172.993 12.8516C173.243 12.2891 173.571 11.8047 173.978 11.3984C174.399 10.9766 174.892 10.6484 175.454 10.4141C176.017 10.1641 176.61 10.0391 177.235 10.0391H189.142C189.782 10.0391 190.384 10.1641 190.946 10.4141C191.509 10.6484 191.993 10.9766 192.399 11.3984C192.821 11.8047 193.149 12.2891 193.384 12.8516C193.634 13.4141 193.759 14.0156 193.759 14.6562V24.875ZM177.235 14.6562V20.2578H189.142V14.6562H177.235Z" fill="#6BD05B"/>
</g>
<defs>
<filter id="filter0_d_468_4760" x="0.217773" y="0.429688" width="197.541" height="52.6484" filterUnits="userSpaceOnUse" color-interpolation-filters="sRGB">
<feFlood flood-opacity="0" result="BackgroundImageFix"/>
<feColorMatrix in="SourceAlpha" type="matrix" values="0 0 0 0 0 0 0 0 0 0 0 0 0 0 0 0 0 0 127 0" result="hardAlpha"/>
<feOffset dy="4"/>
<feGaussianBlur stdDeviation="2"/>
<feComposite in2="hardAlpha" operator="out"/>
<feColorMatrix type="matrix" values="0 0 0 0 0 0 0 0 0 0 0 0 0 0 0 0 0 0 0.25 0"/>
<feBlend mode="normal" in2="BackgroundImageFix" result="effect1_dropShadow_468_4760"/>
<feBlend mode="normal" in="SourceGraphic" in2="effect1_dropShadow_468_4760" result="shape"/>
</filter>
</defs>
</svg>
